<svg width="1200" height="630" viewBox="0 0 1200 630" xmlns="http://www.w3.org/2000/svg">
  <rect width="1200" height="630" fill="#0F0E0D"/>
  <!-- Gold rule top -->
  <rect x="0" y="0" width="1200" height="2" fill="#B89355"/>
  <!-- Grid lines -->
  <line x1="80" y1="0" x2="80" y2="630" stroke="rgba(184,147,85,0.06)" stroke-width="1"/>
  <line x1="1120" y1="0" x2="1120" y2="630" stroke="rgba(184,147,85,0.06)" stroke-width="1"/>
  <!-- Wordmark -->
  <text x="80" y="280" font-family="Georgia, serif" font-size="88" font-weight="300" fill="#F4F0E8" letter-spacing="-2">Property</text>
  <text x="80" y="380" font-family="Georgia, serif" font-size="88" font-weight="300" fill="#B89355" letter-spacing="-2">DNA</text>
  <!-- Tagline -->
  <text x="80" y="440" font-family="Arial, sans-serif" font-size="18" font-weight="400" fill="rgba(244,240,232,0.45)" letter-spacing="4">PROPERTY INTELLIGENCE</text>
  <!-- URL -->
  <text x="80" y="570" font-family="Arial, sans-serif" font-size="15" fill="rgba(184,147,85,0.6)" letter-spacing="2">THEPROPERTYDNA.COM</text>
  <!-- Decorative DNA helix lines -->
  <path d="M 950 100 Q 1020 200 950 300 Q 880 400 950 500" stroke="rgba(184,147,85,0.15)" stroke-width="1.5" fill="none"/>
  <path d="M 1000 100 Q 930 200 1000 300 Q 1070 400 1000 500" stroke="rgba(184,147,85,0.15)" stroke-width="1.5" fill="none"/>
  <circle cx="975" cy="170" r="3" fill="rgba(184,147,85,0.25)"/>
  <circle cx="975" cy="240" r="3" fill="rgba(184,147,85,0.25)"/>
  <circle cx="975" cy="310" r="3" fill="rgba(184,147,85,0.25)"/>
  <circle cx="975" cy="380" r="3" fill="rgba(184,147,85,0.25)"/>
  <circle cx="975" cy="450" r="3" fill="rgba(184,147,85,0.25)"/>
  <line x1="950" y1="170" x2="1000" y2="170" stroke="rgba(184,147,85,0.12)" stroke-width="1"/>
  <line x1="950" y1="240" x2="1000" y2="240" stroke="rgba(184,147,85,0.12)" stroke-width="1"/>
  <line x1="950" y1="310" x2="1000" y2="310" stroke="rgba(184,147,85,0.12)" stroke-width="1"/>
  <line x1="950" y1="380" x2="1000" y2="380" stroke="rgba(184,147,85,0.12)" stroke-width="1"/>
  <line x1="950" y1="450" x2="1000" y2="450" stroke="rgba(184,147,85,0.12)" stroke-width="1"/>
</svg>
